<?xml version="1.0" encoding="utf-8"?>
<!-- Generator: Adobe Illustrator 21.0.0, SVG Export Plug-In . SVG Version: 6.00 Build 0)  -->
<svg version="1.1" id="Layer_1" xmlns="http://www.w3.org/2000/svg" xmlns:xlink="http://www.w3.org/1999/xlink" x="0px" y="0px"
	 viewBox="0 0 454.7 140" style="enable-background:new 0 0 454.7 140;" xml:space="preserve">
<style type="text/css">
	.st0{fill-rule:evenodd;clip-rule:evenodd;fill:#77AF36;}
	.st1{fill:#FFFFFF;}
</style>
<g>
	<path class="st0" d="M122.7,114.3l10.7,10.8l-14.7,14.8l-11.4-11.5c-26.9,18-63.4,15-87.1-8.9C-3.4,95.5-6.3,58.6,11.5,31.4
		L0.1,19.9L14.7,5l10.7,10.8C38.1,5.3,53.6,0,69.2,0v21c-10.2,0-20.4,3.3-29,9.8l29,29.3l44-44.5l4.9,4.9l0,0
		C143.4,46.2,145,86.8,122.7,114.3z M69.2,89.8L26.6,46.7c-9.9,18.6-7.2,42.3,8.4,58c18.9,19.1,49.6,19.1,68.5,0
		c15.5-15.7,18.3-39.4,8.4-58L69.2,89.8z"/>
	<g>
		<g>
			<path class="st1" d="M200,78.6h15v14.5c-1.7,0.8-3.6,1.3-5.6,1.6c-2,0.3-4.1,0.5-6.4,0.5c-3.9,0-7.3-0.6-10.3-1.9
				c-3-1.2-5.5-3-7.6-5.2c-2-2.2-3.6-4.9-4.6-7.9c-1-3.1-1.6-6.5-1.6-10.1c0-3.6,0.6-6.9,1.7-10c1.2-3,2.8-5.7,4.8-7.9
				c2.1-2.2,4.5-3.9,7.4-5.2c2.8-1.2,5.9-1.9,9.2-1.9c3.9,0,7.3,0.7,10.4,2.1c3,1.4,5.5,3.2,7.4,5.4l12-13.9
				c-3.3-3.2-7.7-5.8-13-7.7c-5.3-1.9-11.1-2.9-17.4-2.9c-6,0-11.6,1-16.8,2.9c-5.2,2-9.7,4.8-13.6,8.4c-3.9,3.6-6.9,8.1-9.1,13.2
				c-2.2,5.2-3.3,11-3.3,17.4c0,6.3,1.1,12,3.2,17.2c2.2,5.1,5.1,9.6,9,13.2c3.8,3.7,8.4,6.5,13.7,8.6c5.3,2,11.1,3,17.4,3
				c6.1,0,11.7-0.6,16.9-1.9c5.2-1.3,9.7-2.9,13.5-5V63H200V78.6z M260.4,30.3h-19.2v79.8h49.7V93.4h-30.5V30.3z M326,30.3
				l-33.1,79.8h20.7l5.8-15.7h30.5l6.1,15.7h21.2l-32.8-79.8H326z M324.9,79l10-27.4l9.8,27.4H324.9z M450.8,51.1
				c-2.6-5.1-6-9.2-10.3-12.2c-4.2-3-9.1-5.2-14.5-6.5c-5.4-1.3-10.9-2-16.5-2H381v79.8h29.4c5.4,0,10.8-0.8,16-2.3
				c5.3-1.5,10-3.9,14.2-7.2c4.2-3.3,7.6-7.4,10.1-12.5c2.6-5.1,3.8-11.1,3.8-18.1C454.7,62.5,453.4,56.2,450.8,51.1z M432.7,81.2
				c-1.4,3-3.4,5.4-5.8,7.2c-2.4,1.8-5.2,3.1-8.4,3.9c-3.2,0.8-6.4,1.2-9.9,1.2h-9V46.8h9.5c3.3,0,6.4,0.4,9.5,1.1
				c3.1,0.8,5.8,2,8.2,3.8c2.4,1.8,4.3,4.1,5.8,7.1c1.4,3,2.2,6.7,2.2,11.2C434.8,74.5,434.1,78.2,432.7,81.2z"/>
		</g>
	</g>
</g>
</svg>
