<?xml version="1.0" encoding="utf-8"?>
<!-- Generator: Adobe Illustrator 21.0.0, SVG Export Plug-In . SVG Version: 6.00 Build 0)  -->
<svg version="1.1" id="Layer_1" xmlns="http://www.w3.org/2000/svg" xmlns:xlink="http://www.w3.org/1999/xlink" x="0px" y="0px"
	 viewBox="0 0 200 200" style="enable-background:new 0 0 200 200;" xml:space="preserve">
<style type="text/css">
	.st0{fill-rule:evenodd;clip-rule:evenodd;fill:#77AF36;}
</style>
<path class="st0" d="M177.4,163.3l15.4,15.4l-21.2,21.2l-16.5-16.5c-38.8,25.7-91.7,21.5-125.9-12.7c-34.2-34.2-38.4-87-12.7-125.9
	L0.1,28.4L21.3,7.1l15.4,15.4C55.1,7.5,77.5,0,100,0v30c-14.8,0-29.5,4.7-41.9,13.9L100,85.9l63.6-63.6l7.1,7.1l0,0
	C207.4,66,209.6,124,177.4,163.3z M100,128.3L38.4,66.7c-14.4,26.5-10.3,60.4,12.1,82.8c27.3,27.3,71.7,27.3,99,0
	c22.4-22.4,26.4-56.3,12.1-82.8L100,128.3z"/>
</svg>
